<mxfile host="app.diagrams.net" agent="Mozilla/5.0 (X11; Linux x86_64) AppleWebKit/537.36 (KHTML, like Gecko) Chrome/136.0.0.0 Safari/537.36" version="27.0.5">
  <diagram name="Page-1" id="oycMU7-oOQ0fOEFs9r8z">
    <mxGraphModel dx="1469" dy="753" grid="1" gridSize="10" guides="1" tooltips="1" connect="1" arrows="1" fold="1" page="1" pageScale="1" pageWidth="827" pageHeight="1169" math="0" shadow="0">
      <root>
        <mxCell id="0" />
        <mxCell id="1" parent="0" />
        <mxCell id="S-psZh5E1U36ZEqR3rU4-3" style="edgeStyle=orthogonalEdgeStyle;rounded=0;orthogonalLoop=1;jettySize=auto;html=1;strokeWidth=2;fontSize=14;" edge="1" parent="1" source="S-psZh5E1U36ZEqR3rU4-4" target="S-psZh5E1U36ZEqR3rU4-6">
          <mxGeometry relative="1" as="geometry" />
        </mxCell>
        <mxCell id="S-psZh5E1U36ZEqR3rU4-4" value="acceleration_points(P, h, n)" style="shape=process;whiteSpace=wrap;html=1;backgroundOutline=1;fontSize=14;strokeWidth=2;" vertex="1" parent="1">
          <mxGeometry x="480" y="10" width="230" height="60" as="geometry" />
        </mxCell>
        <mxCell id="S-psZh5E1U36ZEqR3rU4-5" value="" style="edgeStyle=orthogonalEdgeStyle;rounded=0;orthogonalLoop=1;jettySize=auto;html=1;strokeWidth=2;fontSize=14;" edge="1" parent="1" source="S-psZh5E1U36ZEqR3rU4-6" target="S-psZh5E1U36ZEqR3rU4-20">
          <mxGeometry relative="1" as="geometry" />
        </mxCell>
        <mxCell id="S-psZh5E1U36ZEqR3rU4-6" value="deque result;" style="shape=label;html=1;strokeWidth=2;whiteSpace=wrap;rounded=0;arcSize=12;size=0.23;fontSize=14;" vertex="1" parent="1">
          <mxGeometry x="500" y="100" width="190" height="60" as="geometry" />
        </mxCell>
        <mxCell id="S-psZh5E1U36ZEqR3rU4-7" value="" style="edgeStyle=orthogonalEdgeStyle;rounded=0;orthogonalLoop=1;jettySize=auto;html=1;strokeWidth=2;fontSize=14;" edge="1" parent="1" source="S-psZh5E1U36ZEqR3rU4-8" target="S-psZh5E1U36ZEqR3rU4-10">
          <mxGeometry relative="1" as="geometry" />
        </mxCell>
        <mxCell id="S-psZh5E1U36ZEqR3rU4-8" value="k1 = Riccati(P)" style="shape=label;html=1;strokeWidth=2;whiteSpace=wrap;rounded=0;arcSize=12;size=0.23;fontSize=14;" vertex="1" parent="1">
          <mxGeometry x="500" y="340" width="190" height="60" as="geometry" />
        </mxCell>
        <mxCell id="S-psZh5E1U36ZEqR3rU4-9" value="" style="edgeStyle=orthogonalEdgeStyle;rounded=0;orthogonalLoop=1;jettySize=auto;html=1;strokeWidth=2;fontSize=14;" edge="1" parent="1" source="S-psZh5E1U36ZEqR3rU4-10" target="S-psZh5E1U36ZEqR3rU4-12">
          <mxGeometry relative="1" as="geometry" />
        </mxCell>
        <mxCell id="S-psZh5E1U36ZEqR3rU4-10" value="k2 = Riccati(P + k1 * h/2)" style="shape=label;html=1;strokeWidth=2;whiteSpace=wrap;rounded=0;arcSize=12;size=0.23;fontSize=14;" vertex="1" parent="1">
          <mxGeometry x="500" y="420" width="190" height="60" as="geometry" />
        </mxCell>
        <mxCell id="S-psZh5E1U36ZEqR3rU4-11" value="" style="edgeStyle=orthogonalEdgeStyle;rounded=0;orthogonalLoop=1;jettySize=auto;html=1;strokeWidth=2;fontSize=14;" edge="1" parent="1" source="S-psZh5E1U36ZEqR3rU4-12" target="S-psZh5E1U36ZEqR3rU4-14">
          <mxGeometry relative="1" as="geometry" />
        </mxCell>
        <mxCell id="S-psZh5E1U36ZEqR3rU4-12" value="k3 = Riccati(P + k2 * h/2)" style="shape=label;html=1;strokeWidth=2;whiteSpace=wrap;rounded=0;arcSize=12;size=0.23;fontSize=14;" vertex="1" parent="1">
          <mxGeometry x="500" y="500" width="190" height="60" as="geometry" />
        </mxCell>
        <mxCell id="S-psZh5E1U36ZEqR3rU4-13" value="" style="edgeStyle=orthogonalEdgeStyle;rounded=0;orthogonalLoop=1;jettySize=auto;html=1;strokeWidth=2;fontSize=14;" edge="1" parent="1" source="S-psZh5E1U36ZEqR3rU4-14" target="S-psZh5E1U36ZEqR3rU4-16">
          <mxGeometry relative="1" as="geometry" />
        </mxCell>
        <mxCell id="S-psZh5E1U36ZEqR3rU4-14" value="k4 = Riccati(P + k3 * h)" style="shape=label;html=1;strokeWidth=2;whiteSpace=wrap;rounded=0;arcSize=12;size=0.23;fontSize=14;" vertex="1" parent="1">
          <mxGeometry x="500" y="580" width="190" height="60" as="geometry" />
        </mxCell>
        <mxCell id="S-psZh5E1U36ZEqR3rU4-15" value="" style="edgeStyle=orthogonalEdgeStyle;rounded=0;orthogonalLoop=1;jettySize=auto;html=1;strokeWidth=2;fontSize=14;" edge="1" parent="1" source="S-psZh5E1U36ZEqR3rU4-16" target="S-psZh5E1U36ZEqR3rU4-18">
          <mxGeometry relative="1" as="geometry" />
        </mxCell>
        <mxCell id="S-psZh5E1U36ZEqR3rU4-16" value="P += (k1 + 2k2 + 2k3 + k4) * (h / 6)" style="shape=label;html=1;strokeWidth=2;whiteSpace=wrap;rounded=0;arcSize=12;size=0.23;fontSize=14;" vertex="1" parent="1">
          <mxGeometry x="500" y="660" width="190" height="60" as="geometry" />
        </mxCell>
        <mxCell id="S-psZh5E1U36ZEqR3rU4-17" style="edgeStyle=orthogonalEdgeStyle;rounded=0;orthogonalLoop=1;jettySize=auto;html=1;strokeWidth=2;fontSize=14;" edge="1" parent="1" source="S-psZh5E1U36ZEqR3rU4-18" target="S-psZh5E1U36ZEqR3rU4-24">
          <mxGeometry relative="1" as="geometry" />
        </mxCell>
        <mxCell id="S-psZh5E1U36ZEqR3rU4-18" value="result.push_front(P)" style="shape=label;html=1;strokeWidth=2;whiteSpace=wrap;rounded=0;arcSize=12;size=0.23;fontSize=14;" vertex="1" parent="1">
          <mxGeometry x="500" y="740" width="190" height="60" as="geometry" />
        </mxCell>
        <mxCell id="S-psZh5E1U36ZEqR3rU4-19" value="" style="edgeStyle=orthogonalEdgeStyle;rounded=0;orthogonalLoop=1;jettySize=auto;html=1;strokeWidth=2;fontSize=14;" edge="1" parent="1" source="S-psZh5E1U36ZEqR3rU4-20" target="S-psZh5E1U36ZEqR3rU4-22">
          <mxGeometry relative="1" as="geometry" />
        </mxCell>
        <mxCell id="S-psZh5E1U36ZEqR3rU4-20" value="result.push_front(P)" style="shape=label;html=1;strokeWidth=2;whiteSpace=wrap;rounded=0;arcSize=12;size=0.23;fontSize=14;" vertex="1" parent="1">
          <mxGeometry x="500" y="180" width="190" height="60" as="geometry" />
        </mxCell>
        <mxCell id="S-psZh5E1U36ZEqR3rU4-21" style="edgeStyle=orthogonalEdgeStyle;rounded=0;orthogonalLoop=1;jettySize=auto;html=1;strokeWidth=2;fontSize=14;" edge="1" parent="1" source="S-psZh5E1U36ZEqR3rU4-22" target="S-psZh5E1U36ZEqR3rU4-8">
          <mxGeometry relative="1" as="geometry" />
        </mxCell>
        <mxCell id="S-psZh5E1U36ZEqR3rU4-22" value="От i = 1 до n" style="shape=loopLimit;whiteSpace=wrap;html=1;strokeWidth=2;fontSize=14;" vertex="1" parent="1">
          <mxGeometry x="500" y="260" width="190" height="60" as="geometry" />
        </mxCell>
        <mxCell id="S-psZh5E1U36ZEqR3rU4-23" style="edgeStyle=orthogonalEdgeStyle;rounded=0;orthogonalLoop=1;jettySize=auto;html=1;" edge="1" parent="1" source="S-psZh5E1U36ZEqR3rU4-24" target="S-psZh5E1U36ZEqR3rU4-25">
          <mxGeometry relative="1" as="geometry" />
        </mxCell>
        <mxCell id="S-psZh5E1U36ZEqR3rU4-24" value="Конец цикла" style="shape=loopLimit;html=1;strokeWidth=2;rotation=0;fontSize=14;horizontal=1;verticalAlign=middle;whiteSpace=wrap;flipV=1;" vertex="1" parent="1">
          <mxGeometry x="500" y="820" width="190" height="50" as="geometry" />
        </mxCell>
        <mxCell id="S-psZh5E1U36ZEqR3rU4-25" value="return result;" style="strokeWidth=2;html=1;shape=mxgraph.flowchart.terminator;whiteSpace=wrap;fontSize=14;" vertex="1" parent="1">
          <mxGeometry x="545" y="890" width="100" height="60" as="geometry" />
        </mxCell>
        <mxCell id="S-psZh5E1U36ZEqR3rU4-29" value="&lt;span style=&quot;font-size: 14px;&quot;&gt;Метод&lt;/span&gt;&lt;div&gt;&lt;span style=&quot;font-size: 14px;&quot;&gt;Рунге Кутты&amp;nbsp;&lt;/span&gt;&lt;/div&gt;&lt;div&gt;&lt;span style=&quot;font-size: 14px;&quot;&gt;4 порядка&lt;/span&gt;&lt;/div&gt;" style="strokeWidth=2;html=1;shape=mxgraph.flowchart.annotation_2;align=left;labelPosition=right;pointerEvents=1;" vertex="1" parent="1">
          <mxGeometry x="690" y="260" width="50" height="60" as="geometry" />
        </mxCell>
      </root>
    </mxGraphModel>
  </diagram>
</mxfile>
